<svg width="23" height="22" viewBox="0 0 23 22" fill="none" xmlns="http://www.w3.org/2000/svg">
<g clip-path="url(#clip0_1_176)">
<path d="M20.8487 21.78H2.88349C1.89349 21.78 1.08609 20.9726 1.08609 19.9826V2.0174C1.08609 1.0274 1.89349 0.220001 2.88349 0.220001H20.8465C21.8387 0.220001 22.6439 1.0274 22.6439 2.0174V19.9804C22.6461 20.9726 21.8387 21.78 20.8487 21.78ZM2.88349 1.3596C2.52049 1.3596 2.22569 1.6544 2.22569 2.0174V19.9804C2.22569 20.3434 2.52049 20.6382 2.88349 20.6382H20.8465C21.2095 20.6382 21.5043 20.3434 21.5043 19.9804V2.0174C21.5043 1.6544 21.2095 1.3596 20.8465 1.3596H2.88349Z" fill="black"/>
</g>
<defs>
<clipPath id="clip0_1_176">
<rect width="22" height="22" fill="white" transform="translate(0.866089)"/>
</clipPath>
</defs>
</svg>
