<svg width="126" height="177" viewBox="0 0 126 177" fill="none" xmlns="http://www.w3.org/2000/svg">
<path d="M119.189 26.0934H95.3029V18.9383C95.3029 15.3942 92.43 12.5197 88.8843 12.5197H75.5216C75.5216 8.04728 73.1348 3.91309 69.2613 1.67779C65.3878 -0.559264 60.6141 -0.559264 56.7405 1.67779C52.8671 3.91309 50.4802 8.04728 50.4802 12.5197H37.1175C33.5717 12.5197 30.6989 15.3944 30.6989 18.9383V26.0934H6.81313C3.32716 26.0934 0.5 28.9205 0.5 32.4065V169.929C0.5 171.593 1.16937 173.188 2.3566 174.355C3.54383 175.523 5.14854 176.165 6.81313 176.136H119.187C120.851 176.165 122.456 175.523 123.643 174.355C124.831 173.188 125.5 171.593 125.5 169.929V32.4065C125.5 30.7331 124.834 29.1266 123.65 27.9429C122.467 26.7592 120.86 26.0934 119.187 26.0934H119.189ZM63.0018 6.83877C65.3005 6.83877 67.372 8.22328 68.2512 10.3458C69.1303 12.4684 68.644 14.9134 67.0199 16.5372C65.394 18.1631 62.9509 18.6492 60.8285 17.7703C58.7042 16.8895 57.3197 14.818 57.3197 12.5191C57.3197 9.38192 59.865 6.83818 63.0024 6.83818L63.0018 6.83877ZM6.81493 169.929V32.4069H119.189V169.821L6.81493 169.929Z" fill="black"/>
<path d="M108.353 47.4497H76.7871C75.2757 47.4497 74.0515 48.6739 74.0515 50.1853C74.1079 51.6543 75.3162 52.8169 76.7871 52.8151H108.353C109.068 52.8451 109.765 52.5791 110.281 52.0841C110.798 51.5874 111.088 50.9022 111.088 50.1853C111.088 49.4595 110.801 48.7638 110.287 48.2512C109.774 47.7386 109.078 47.4497 108.353 47.4497Z" fill="black"/>
<path d="M108.353 68.5986H76.7871C75.2757 68.5986 74.0515 69.8246 74.0515 71.3342C74.1079 72.805 75.3162 73.9658 76.7871 73.9658H108.353C109.068 73.994 109.765 73.7298 110.281 73.2331C110.798 72.7363 111.088 72.0511 111.088 71.3342C111.088 70.6102 110.801 69.9127 110.287 69.4001C109.774 68.8875 109.078 68.5986 108.353 68.5986Z" fill="black"/>
<path d="M108.353 89.8514H76.7871C75.3339 89.8514 74.1573 91.0298 74.1573 92.483C74.1573 93.9362 75.334 95.1129 76.7871 95.1129H108.353C109.806 95.1129 110.983 93.9362 110.983 92.483C110.983 91.0298 109.806 89.8514 108.353 89.8514Z" fill="black"/>
<path d="M108.353 111.005H17.4437C15.9922 111.005 14.8138 112.182 14.8138 113.635C14.8138 115.088 15.9922 116.267 17.4437 116.267H108.353C109.806 116.267 110.983 115.088 110.983 113.635C110.983 112.182 109.806 111.005 108.353 111.005Z" fill="black"/>
<path d="M17.4391 137.52H41.9552C43.426 137.464 44.5868 136.255 44.5868 134.784C44.5868 134.087 44.3085 133.418 43.8153 132.924C43.3221 132.431 42.6528 132.153 41.9552 132.153H17.4391C15.9701 132.153 14.7617 133.314 14.7036 134.784C14.7036 135.508 14.9925 136.206 15.505 136.719C16.0194 137.231 16.7152 137.52 17.4391 137.52Z" fill="black"/>
<path d="M108.353 132.154H53.4286C51.9771 132.154 50.7987 133.332 50.7987 134.785C50.797 136.256 51.9595 137.465 53.4286 137.521H108.353C109.079 137.521 109.774 137.232 110.287 136.72C110.801 136.207 111.088 135.509 111.088 134.785C111.088 134.069 110.798 133.383 110.282 132.887C109.766 132.39 109.068 132.126 108.353 132.154Z" fill="black"/>
<path d="M71.7366 153.303H17.4437C15.9746 153.301 14.7663 154.464 14.7081 155.933C14.7081 156.659 14.997 157.354 15.5096 157.867C16.0239 158.38 16.7197 158.669 17.4437 158.669H71.7366C73.2057 158.612 74.3683 157.404 74.3665 155.933C74.3665 155.235 74.09 154.566 73.5968 154.073C73.1036 153.58 72.4342 153.303 71.7366 153.303Z" fill="black"/>
<path d="M108.037 153.303H84.0474C82.5766 153.301 81.3683 154.463 81.3119 155.933C81.3119 156.658 81.599 157.354 82.1116 157.867C82.6259 158.379 83.3217 158.668 84.0474 158.668H108.458C109.184 158.668 109.88 158.379 110.392 157.867C110.905 157.354 111.194 156.658 111.194 155.933C111.172 155.147 110.815 154.407 110.211 153.903C109.607 153.4 108.814 153.181 108.037 153.303Z" fill="black"/>
<path d="M19.757 95.6416H57.951C60.6813 95.6416 62.8955 93.4274 62.8955 90.6952V52.5012C62.8973 49.7533 60.699 47.5075 57.951 47.4512H19.757C16.9897 47.5075 14.7615 49.7358 14.7051 52.5012V90.6952C14.7632 93.4432 17.0074 95.6416 19.757 95.6416ZM30.2783 68.3896H35.6435V62.8128C35.6435 61.069 37.058 59.6563 38.8001 59.6563C40.5615 59.6545 42.006 61.0531 42.0624 62.8128V68.3896H47.5336C48.3897 68.3614 49.2193 68.6802 49.8341 69.2756C50.4489 69.871 50.7959 70.69 50.7959 71.5462C50.7959 73.3481 49.3356 74.8084 47.5336 74.8084H41.9568V80.2797C41.9568 82.0799 40.4966 83.5402 38.6963 83.5402C37.8403 83.5419 37.0212 83.1949 36.4258 82.5802C35.8304 81.9654 35.5098 81.134 35.5398 80.2797V74.8084H30.0667C28.307 74.7503 26.9102 73.3077 26.9102 71.5462C26.9102 69.8023 28.3246 68.3896 30.0667 68.3896H30.2783Z" fill="black"/>
</svg>
