<svg width="4" height="81" viewBox="0 0 4 81" fill="none" xmlns="http://www.w3.org/2000/svg">
<mask id="path-1-inside-1_1_245" fill="white">
<path d="M0 0.370972H4V80.4744H0V0.370972Z"/>
</mask>
<path d="M0 0.370972H4V80.4744H0V0.370972Z" fill="white"/>
<path d="M0 0.370972V-4.62903H-5V0.370972H0ZM4 0.370972H9V-4.62903H4V0.370972ZM4 80.4744V85.4744H9V80.4744H4ZM0 80.4744H-5V85.4744H0V80.4744ZM0 5.37097H4V-4.62903H0V5.37097ZM-1 0.370972V80.4744H9V0.370972H-1ZM4 75.4744H0V85.4744H4V75.4744ZM5 80.4744V0.370972H-5V80.4744H5Z" fill="#007D67" mask="url(#path-1-inside-1_1_245)"/>
</svg>
