<svg width="4" height="81" viewBox="0 0 4 81" fill="none" xmlns="http://www.w3.org/2000/svg">
<mask id="path-1-inside-1_1_244" fill="white">
<path d="M0 0.241699H4V80.3452H0V0.241699Z"/>
</mask>
<path d="M0 0.241699H4V80.3452H0V0.241699Z" fill="white"/>
<path d="M0 0.241699V-4.7583H-5V0.241699H0ZM4 0.241699H9V-4.7583H4V0.241699ZM4 80.3452V85.3452H9V80.3452H4ZM0 80.3452H-5V85.3452H0V80.3452ZM0 5.2417H4V-4.7583H0V5.2417ZM-1 0.241699V80.3452H9V0.241699H-1ZM4 75.3452H0V85.3452H4V75.3452ZM5 80.3452V0.241699H-5V80.3452H5Z" fill="#007D67" mask="url(#path-1-inside-1_1_244)"/>
</svg>
