<svg width="703" height="310" viewBox="0 0 703 310" fill="none" xmlns="http://www.w3.org/2000/svg">
<path d="M1 235.374L85.8324 230.623C87.6851 230.519 89.5432 230.674 91.3533 231.082L164.448 247.577C171.704 249.215 179.269 246.69 184.087 241.024L216.904 202.43C218.979 199.99 221.61 198.084 224.575 196.872L251.15 186.013C258.815 182.88 267.618 184.796 273.289 190.83L333.36 254.746C342.454 264.423 358.28 262.712 365.097 251.316L431.282 140.676C435.912 132.934 445.152 129.251 453.838 131.683L512.051 147.983C520.73 150.414 529.964 146.737 534.598 139.006L608.924 15.0008C612.333 9.3132 618.34 5.68504 624.961 5.31427L702 1" stroke="#CE2A96"/>
<path d="M1 254.613L80.9062 246.195C85.8716 245.672 90.8532 247.025 94.8717 249.989L156.343 295.32C166.589 302.876 181.194 299.062 186.438 287.461L219.347 214.657C219.823 213.603 220.207 212.51 220.494 211.389L250.559 94.2007C255.159 76.2709 279.55 73.6734 287.823 90.2323L331.916 178.489C339.577 193.824 361.717 193.045 368.283 177.211L425.552 39.0804C431.516 24.697 450.903 22.3442 460.134 34.8836L513.321 107.135C520.452 116.822 534.459 118.068 543.188 109.792L609.454 46.9631C612.645 43.9371 616.745 42.0475 621.119 41.5867L702 33.0661" stroke="#6C60FF"/>
</svg>
